<?xml version="1.0" encoding="utf-8"?>
<!-- Generator: Adobe Illustrator 25.2.0, SVG Export Plug-In . SVG Version: 6.00 Build 0)  -->
<svg version="1.1" id="Capa_1" xmlns="http://www.w3.org/2000/svg" xmlns:xlink="http://www.w3.org/1999/xlink" x="0px" y="0px"
	 viewBox="0 0 78.45 77.63" style="enable-background:new 0 0 78.45 77.63;" xml:space="preserve">
<style type="text/css">
	.st0{fill:#755CC9;stroke:#755CCA;stroke-width:1.5;}
	.st1{fill:none;stroke:#755CC9;stroke-width:2.5;stroke-miterlimit:10;}
	.st2{fill:none;stroke:#755CC9;stroke-width:3;stroke-linecap:round;stroke-miterlimit:10;}
	.st3{fill:none;stroke:#755CC9;stroke-width:3;stroke-miterlimit:10;}
	.st4{fill:#755CC9;stroke:#755CC9;}
	.st5{opacity:0.162;fill:#1B1E33;enable-background:new    ;}
	.st6{opacity:0.435;fill:#1B1E33;enable-background:new    ;}
	.st7{opacity:0.543;fill:#1B1E33;enable-background:new    ;}
	.st8{opacity:0.845;fill:#1B1E33;enable-background:new    ;}
</style>
<g id="Grupo_324" transform="translate(147.293 35.872)">
	<rect id="Rectángulo_29" x="-138.94" y="19.16" class="st0" width="7.64" height="1.59"/>
	<rect id="Rectángulo_30" x="-138.94" y="14.18" class="st0" width="13.28" height="1.59"/>
	<path id="Trazado_1493" class="st0" d="M-81.73,6.14h-4.47V4.55h4.47c1.33,0,2.41-1.08,2.41-2.41v-6.54c0-1.33-1.08-2.41-2.41-2.41
		h-20.48c-1.33,0-2.41,1.08-2.41,2.41v6.54c0,1.33,1.08,2.41,2.41,2.41h3.25v1.59h-3.25c-2.21,0-4-1.79-4-4v-6.53c0-2.21,1.79-4,4-4
		h20.48c2.21,0,4,1.79,4,4v6.54C-77.73,4.35-79.52,6.14-81.73,6.14z"/>
	<path id="Trazado_1494" class="st0" d="M-110.93,11.45h-27.48c-0.73,0-1.33-0.6-1.33-1.33V-15.7c0-0.73,0.59-1.32,1.33-1.33h27.48
		c0.73,0,1.33,0.59,1.33,1.33v25.82C-109.6,10.86-110.19,11.45-110.93,11.45L-110.93,11.45z M-138.15,9.86h26.96v-25.3h-26.96V9.86z
		"/>
	<rect id="Rectángulo_31" x="-119.36" y="-28.64" class="st0" width="40.83" height="1.59"/>
	<rect id="Rectángulo_32" x="-145.91" y="-23.33" class="st0" width="75.36" height="1.59"/>
	<path id="Trazado_1495" class="st0" d="M-74.33,28.21h-4.19v-1.59h4.19c1.73,0,3.14-1.4,3.15-3.14v-53.88
		c0-1.74-1.41-3.14-3.15-3.14h-67.48c-1.74,0-3.14,1.41-3.15,3.14v53.88c0,1.74,1.41,3.15,3.15,3.15h35.78v1.59h-35.78
		c-2.61,0-4.73-2.12-4.73-4.73v-53.88c0-2.61,2.12-4.73,4.73-4.73h67.48c2.61,0,4.73,2.12,4.73,4.73v53.88
		C-69.61,26.1-71.72,28.21-74.33,28.21z"/>
	<path id="Trazado_1496" class="st0" d="M-137.45-27.85c0,0.64-0.52,1.16-1.16,1.16s-1.16-0.52-1.16-1.16
		c0-0.64,0.52-1.16,1.16-1.16S-137.45-28.49-137.45-27.85C-137.45-27.85-137.45-27.85-137.45-27.85"/>
	<path id="Trazado_1497" class="st0" d="M-132.14-27.85c0,0.64-0.52,1.17-1.16,1.17s-1.17-0.52-1.17-1.16
		c0-0.64,0.52-1.17,1.16-1.17c0,0,0,0,0,0l0,0C-132.66-29.01-132.14-28.49-132.14-27.85"/>
	<path id="Trazado_1498" class="st0" d="M-126.82-27.85c0,0.64-0.52,1.17-1.16,1.17s-1.17-0.52-1.17-1.16
		c0-0.64,0.52-1.17,1.16-1.17c0,0,0,0,0,0l0,0C-127.35-29.01-126.83-28.49-126.82-27.85"/>
	<path id="Trazado_1499" class="st0" d="M-81.37,41.01h-11.81c-2.52,0-4.89-1.21-6.37-3.25l-7.57-10.47
		c-1.34-1.84-0.94-4.41,0.9-5.75c1.7-1.24,4.07-1,5.48,0.56l3.16,3.46V5.28c0-1.09,0.46-2.14,1.25-2.88
		c0.8-0.75,1.87-1.13,2.96-1.06c2.11,0.16,3.72,1.94,3.69,4.05v9.21l8.1,2.8c2.31,0.8,3.85,2.97,3.86,5.41v14.55
		C-77.72,39.38-79.35,41.01-81.37,41.01z M-103.78,22.34c-0.7,0-1.38,0.29-1.85,0.81c-0.82,0.88-0.9,2.23-0.2,3.21l7.57,10.47
		c1.18,1.63,3.07,2.59,5.08,2.59h11.82c1.13,0,2.05-0.92,2.05-2.05V22.8c0-1.76-1.12-3.33-2.79-3.91l-9.17-3.16V5.38
		c0.03-1.27-0.93-2.35-2.2-2.46c-1.3-0.09-2.43,0.9-2.51,2.2c0,0,0,0,0,0c0,0.05-0.01,0.1-0.01,0.16v24.36l-5.92-6.48
		c-0.48-0.52-1.15-0.82-1.86-0.83L-103.78,22.34z"/>
	<rect id="Rectángulo_33" x="-122.51" y="3.06" class="st0" width="5.98" height="1.59"/>
	<path id="Trazado_1500" class="st0" d="M-120.06-2.58L-125-7.34l-4.94,4.75v-14.26h9.89L-120.06-2.58z M-125-9.54l3.36,3.22v-8.96
		h-6.71v8.96L-125-9.54z"/>
</g>
</svg>
