<?xml version="1.0" encoding="utf-8"?>
<!-- Generator: Adobe Illustrator 25.2.0, SVG Export Plug-In . SVG Version: 6.00 Build 0)  -->
<svg version="1.1" id="Capa_1" xmlns="http://www.w3.org/2000/svg" xmlns:xlink="http://www.w3.org/1999/xlink" x="0px" y="0px"
	 viewBox="0 0 98.67 85.65" style="enable-background:new 0 0 98.67 85.65;" xml:space="preserve">
<style type="text/css">
	.st0{fill:#755CC9;stroke:#755CCA;stroke-width:1.5;}
	.st1{fill:none;stroke:#755CC9;stroke-width:2.5;stroke-miterlimit:10;}
	.st2{fill:none;stroke:#755CC9;stroke-width:3;stroke-linecap:round;stroke-miterlimit:10;}
	.st3{fill:none;stroke:#755CC9;stroke-width:3;stroke-miterlimit:10;}
	.st4{fill:#755CC9;}
	.st5{font-family:'Aeonik-Bold';}
	.st6{font-size:12px;}
	.st7{fill:#755CC9;stroke:#755CC9;}
	.st8{opacity:0.162;fill:#1B1E33;enable-background:new    ;}
	.st9{opacity:0.435;fill:#1B1E33;enable-background:new    ;}
	.st10{opacity:0.543;fill:#1B1E33;enable-background:new    ;}
	.st11{opacity:0.845;fill:#1B1E33;enable-background:new    ;}
</style>
<g id="Grupo_335" transform="translate(880.744 38.902)">
	<g id="Grupo_334" transform="translate(0 0)">
		<g id="Grupo_332" transform="translate(0 0)">
			<rect id="Rectángulo_34" x="-822.11" y="8.08" class="st2" width="22.91" height="37.17"/>
			<path id="Trazado_1532" class="st2" d="M-827.22,19.4h-52.03v-56.8h95.67v56.8h-8.26"/>
			<line id="Línea_32" class="st2" x1="-840.44" y1="22.21" x2="-840.44" y2="29.8"/>
			<path id="Trazado_1533" class="st2" d="M-828.34,38.8h-32.34v-9h32.34"/>
			<line id="Línea_33" class="st3" x1="-822.11" y1="14.34" x2="-799.19" y2="14.34"/>
			<line id="Línea_34" class="st2" x1="-822.11" y1="38.8" x2="-799.19" y2="38.8"/>
		</g>
		<line id="Línea_41" class="st2" x1="-820.97" y1="-18.17" x2="-806.28" y2="-18.17"/>
		<line id="Línea_42" class="st2" x1="-820.97" y1="-11.72" x2="-806.28" y2="-11.72"/>
		<line id="Línea_43" class="st2" x1="-820.97" y1="-5.27" x2="-806.28" y2="-5.27"/>
		<line id="Línea_44" class="st2" x1="-827.93" y1="-18.17" x2="-825.62" y2="-18.17"/>
		<line id="Línea_45" class="st2" x1="-827.93" y1="-11.72" x2="-825.62" y2="-11.72"/>
		<line id="Línea_46" class="st2" x1="-827.93" y1="-5.27" x2="-825.62" y2="-5.27"/>
		<circle id="Elipse_17" class="st2" cx="-848.54" cy="-11.72" r="13.59"/>
		<text transform="matrix(1 0 0 1 -852.863 -7.309)" class="st4 st5 st6">£</text>
		<line id="Línea_47" class="st2" x1="-812.69" y1="23.26" x2="-804.94" y2="23.26"/>
		<line id="Línea_48" class="st2" x1="-812.69" y1="26.66" x2="-804.94" y2="26.66"/>
		<line id="Línea_49" class="st2" x1="-812.69" y1="30.06" x2="-804.94" y2="30.06"/>
		<line id="Línea_50" class="st2" x1="-816.36" y1="23.26" x2="-815.14" y2="23.26"/>
		<line id="Línea_51" class="st2" x1="-816.36" y1="26.66" x2="-815.14" y2="26.66"/>
		<line id="Línea_52" class="st2" x1="-816.36" y1="30.06" x2="-815.14" y2="30.06"/>
	</g>
</g>
</svg>
