<?xml version="1.0" encoding="utf-8"?>
<!-- Generator: Adobe Illustrator 25.2.0, SVG Export Plug-In . SVG Version: 6.00 Build 0)  -->
<svg version="1.1" id="Capa_1" xmlns="http://www.w3.org/2000/svg" xmlns:xlink="http://www.w3.org/1999/xlink" x="0px" y="0px"
	 viewBox="0 0 76.99 88.05" style="enable-background:new 0 0 76.99 88.05;" xml:space="preserve">
<style type="text/css">
	.st0{fill:#755CC9;stroke:#755CCA;stroke-width:1.5;}
	.st1{fill:none;stroke:#755CC9;stroke-width:2.5;stroke-miterlimit:10;}
	.st2{fill:none;stroke:#755CC9;stroke-width:3;stroke-linecap:round;stroke-miterlimit:10;}
	.st3{fill:none;stroke:#755CC9;stroke-width:3;stroke-miterlimit:10;}
	.st4{fill:#755CC9;stroke:#755CC9;}
	.st5{opacity:0.162;fill:#1B1E33;enable-background:new    ;}
	.st6{opacity:0.435;fill:#1B1E33;enable-background:new    ;}
	.st7{opacity:0.543;fill:#1B1E33;enable-background:new    ;}
	.st8{opacity:0.845;fill:#1B1E33;enable-background:new    ;}
</style>
<g id="Grupo_328" transform="translate(1227.932 38.902)">
	<path id="Trazado_1526" class="st4" d="M-1183.18-14.17c-2.92,0-5.29-2.37-5.29-5.29s2.37-5.29,5.29-5.29
		c2.92,0,5.29,2.37,5.29,5.29c0.09,2.83-2.14,5.2-4.97,5.29C-1182.97-14.16-1183.08-14.16-1183.18-14.17z M-1183.18-22.34
		c-1.6,0-2.89,1.29-2.89,2.89c0,1.6,1.29,2.89,2.89,2.89s2.89-1.29,2.89-2.89l0,0c0.08-1.51-1.08-2.81-2.59-2.89
		C-1182.98-22.35-1183.08-22.35-1183.18-22.34z"/>
	<path id="Trazado_1527" class="st4" d="M-1209.78,48.44l-6.66-6.67V6.34c0-0.66,0.54-1.2,1.2-1.2s1.2,0.54,1.2,1.2l0,0v34.45
		l4.26,4.26l4.27-4.26v-3.11l-4.59-4.59l4.09-4.09l-4.09-4.1l4.09-4.09l-4.09-4.1l4.57-4.62V6.34c0-0.66,0.54-1.2,1.2-1.2
		s1.2,0.54,1.2,1.2l0,0v6.78l-3.6,3.6l4.15,4.1l-4.09,4.09l4.09,4.1l-4.09,4.09l3.6,3.6v5.08L-1209.78,48.44z"/>
	<path id="Trazado_1528" class="st4" d="M-1182.53-24.23h-2.4c-0.01-6.5-5.27-11.76-11.76-11.78c-6.5,0.06-11.77,5.28-11.88,11.78
		h-2.4c0.12-7.82,6.46-14.12,14.28-14.17C-1188.88-38.39-1182.54-32.05-1182.53-24.23z"/>
	<path id="Trazado_1529" class="st4" d="M-1208.16-18.12h-3.14c-2.02,0.07-3.7-1.51-3.77-3.53s1.51-3.7,3.53-3.77
		c0.08,0,0.16,0,0.24,0h3.14c1.99,0,3.6,1.61,3.6,3.6c0,0.02,0,0.04,0,0.06C-1204.62-19.79-1206.19-18.2-1208.16-18.12z
		 M-1211.3-23.02c-0.69,0-1.25,0.56-1.25,1.25s0.56,1.25,1.25,1.25h3.14c0.63-0.06,1.14-0.57,1.2-1.2c0.03-0.66-0.48-1.22-1.14-1.26
		c-0.02,0-0.04,0-0.06,0L-1211.3-23.02z"/>
	<path id="Trazado_1530" class="st4" d="M-1207.62,7.82h-4.22c-9.74-0.18-15.59-5.43-15.59-14.03c0-7.2,0-23.98,12.52-23.98h9.96
		c12.66,0,12.66,16.79,12.66,23.98C-1192.22,2.57-1197.98,7.82-1207.62,7.82z M-1214.81-27.81c-8.92,0-10.12,10.93-10.12,21.59
		c0,10.28,9.2,11.56,13.19,11.63h4.12c3.91,0,13-1.2,13-11.63s-1.2-21.59-10.26-21.59H-1214.81z"/>
	<path id="Trazado_1531" class="st4" d="M-1169.74,17.37c-1.8,0.01-3.54-0.71-4.8-1.99l-19.73-19.8c-0.43-0.51-0.36-1.26,0.14-1.69
		c0.45-0.38,1.1-0.38,1.55,0l19.79,19.79c1.69,1.66,4.4,1.66,6.09,0l11.6-11.6c1.68-1.64,1.71-4.32,0.08-6
		c-0.03-0.03-0.05-0.05-0.08-0.08l-24.16-23.98c-1.64-1.68-4.34-1.71-6.02-0.07c-0.02,0.02-0.05,0.05-0.07,0.07l-8.6,8.6
		c-0.47,0.48-1.24,0.48-1.72,0.01c-0.48-0.47-0.48-1.24-0.01-1.72c0.01-0.01,0.02-0.02,0.03-0.03l8.63-8.6
		c2.55-2.62,6.75-2.67,9.36-0.11c0.04,0.04,0.08,0.07,0.11,0.11l24.1,24.02c2.62,2.57,2.65,6.78,0.08,9.4
		c-0.03,0.03-0.05,0.05-0.08,0.08l-11.6,11.61C-1166.27,16.65-1167.97,17.36-1169.74,17.37z"/>
</g>
</svg>
